<?xml version="1.0" encoding="UTF-8" standalone="no"?>
<!-- Created with Inkscape (http://www.inkscape.org/) -->

<svg
   xmlns:dc="http://purl.org/dc/elements/1.1/"
   xmlns:cc="http://creativecommons.org/ns#"
   xmlns:rdf="http://www.w3.org/1999/02/22-rdf-syntax-ns#"
   xmlns:svg="http://www.w3.org/2000/svg"
   xmlns="http://www.w3.org/2000/svg"
   xmlns:sodipodi="http://sodipodi.sourceforge.net/DTD/sodipodi-0.dtd"
   xmlns:inkscape="http://www.inkscape.org/namespaces/inkscape"
   width="210mm"
   height="297mm"
   viewBox="0 0 744.09448819 1052.3622047"
   id="svg5632"
   version="1.1"
   inkscape:version="0.91 r13725"
   sodipodi:docname="logos.svg">
  <defs
     id="defs5634" />
  <sodipodi:namedview
     id="base"
     pagecolor="#ffffff"
     bordercolor="#666666"
     borderopacity="1.0"
     inkscape:pageopacity="0.0"
     inkscape:pageshadow="2"
     inkscape:zoom="1.4"
     inkscape:cx="29.903134"
     inkscape:cy="599.72772"
     inkscape:document-units="px"
     inkscape:current-layer="layer1"
     showgrid="false"
     inkscape:window-width="3840"
     inkscape:window-height="2076"
     inkscape:window-x="0"
     inkscape:window-y="0"
     inkscape:window-maximized="1" />
  <metadata
     id="metadata5637">
    <rdf:RDF>
      <cc:Work
         rdf:about="">
        <dc:format>image/svg+xml</dc:format>
        <dc:type
           rdf:resource="http://purl.org/dc/dcmitype/StillImage" />
        <dc:title></dc:title>
      </cc:Work>
    </rdf:RDF>
  </metadata>
  <g
     inkscape:label="Layer 1"
     inkscape:groupmode="layer"
     id="layer1">
    <rect
       style="opacity:0;fill:#24a41c;fill-opacity:1;stroke:#000000;stroke-width:3;stroke-linecap:round;stroke-linejoin:miter;stroke-miterlimit:4;stroke-dasharray:none;stroke-dashoffset:0;stroke-opacity:1"
       id="rect6190"
       width="195.35715"
       height="195.35715"
       x="282.6033"
       y="75.74501"
       inkscape:export-xdpi="108.89449"
       inkscape:export-ydpi="108.89449" />
    <g
       style="fill:#ff0000;fill-opacity:0.53731348"
       transform="matrix(3.0174822,-3.0174822,3.0174822,3.0174822,-877.60743,789.57813)"
       id="g4634-5-5-6"
       inkscape:export-xdpi="108.89449"
       inkscape:export-ydpi="108.89449">
      <path
         id="path4997-72-4-6-3"
         d="m 303.10017,103.67767 c 0,1.87252 -1.5182,3.39072 -3.39072,3.39072 -1.87253,0 -3.39072,-1.5182 -3.39072,-3.39072 0,-1.87252 1.51819,-3.39072 3.39072,-3.39072 1.87252,0 3.39072,1.5182 3.39072,3.39072"
         inkscape:connector-curvature="0"
         style="fill:#ff0000;fill-opacity:0.53731348" />
      <path
         id="path4999-8-0-5-5"
         d="m 313.34989,100.28695 c 0.75804,0 2.27814,0.31788 2.96688,1.69536 0.68874,1.37748 0.053,3.39072 0.90066,4.2384 0.20239,0.20238 0.88307,0.67115 1.25393,0.7947 0.37086,0.12355 1.30162,0.12885 2.05669,0.24477 1.51056,0.23205 3.04932,1.34463 2.994,3.19893 -0.0585,1.96302 -1.30012,2.87279 -2.65768,3.32948 -1.09796,0.36958 -2.51634,0.18331 -2.9582,0.53806 -0.44206,0.35433 -0.93605,1.02442 -1.07719,1.53642 -0.14135,0.512 -0.11401,2.08402 -0.45923,2.96688 -0.52704,1.34781 -2.03083,2.1014 -3.24937,2.1014 -1.21854,0 -2.7895,-1.04773 -3.21419,-2.6312 -0.42998,-1.6036 0.63576,-3.32036 1.35989,-3.7264 0.72392,-0.40604 1.6587,-0.46411 2.36567,-0.49738 0.70717,-0.0326 1.81064,-0.33822 2.26118,-0.75634 0.74172,-0.68874 1.0596,-4.41493 -0.10596,-5.50992 -1.16556,-1.09499 -2.50765,-0.49441 -3.28476,-0.63576 -0.77711,-0.14135 -2.01175,-0.49547 -2.49006,-1.5894 -0.47851,-1.09393 -0.46135,-2.17091 0.32551,-3.41657 1.15793,-1.77547 2.25398,-1.88143 3.01223,-1.88143"
         inkscape:connector-curvature="0"
         style="fill:#ff0000;fill-opacity:0.53731348" />
    </g>
    <g
       transform="translate(-3800.1543,2527.7096)"
       id="g5892">
      <g
         id="g4634-5-5"
         transform="matrix(5.1296659,0,0,5.1296659,2339.9561,-2684.5117)"
         style="fill:#ff0000;fill-opacity:0.53731348"
         inkscape:export-xdpi="114.00967"
         inkscape:export-ydpi="114.00967">
        <path
           style="fill:#ff0000;fill-opacity:0.53731348"
           inkscape:connector-curvature="0"
           d="m 303.10017,103.67767 c 0,1.87252 -1.5182,3.39072 -3.39072,3.39072 -1.87253,0 -3.39072,-1.5182 -3.39072,-3.39072 0,-1.87252 1.51819,-3.39072 3.39072,-3.39072 1.87252,0 3.39072,1.5182 3.39072,3.39072"
           id="path4997-72-4-6" />
        <path
           style="fill:#ff0000;fill-opacity:0.53731348"
           inkscape:connector-curvature="0"
           d="m 313.34989,100.28695 c 0.75804,0 2.27814,0.31788 2.96688,1.69536 0.68874,1.37748 0.053,3.39072 0.90066,4.2384 0.20239,0.20238 0.88307,0.67115 1.25393,0.7947 0.37086,0.12355 1.30162,0.12885 2.05669,0.24477 1.51056,0.23205 3.04932,1.34463 2.994,3.19893 -0.0585,1.96302 -1.30012,2.87279 -2.65768,3.32948 -1.09796,0.36958 -2.51634,0.18331 -2.9582,0.53806 -0.44206,0.35433 -0.93605,1.02442 -1.07719,1.53642 -0.14135,0.512 -0.11401,2.08402 -0.45923,2.96688 -0.52704,1.34781 -2.03083,2.1014 -3.24937,2.1014 -1.21854,0 -2.7895,-1.04773 -3.21419,-2.6312 -0.42998,-1.6036 0.63576,-3.32036 1.35989,-3.7264 0.72392,-0.40604 1.6587,-0.46411 2.36567,-0.49738 0.70717,-0.0326 1.81064,-0.33822 2.26118,-0.75634 0.74172,-0.68874 1.0596,-4.41493 -0.10596,-5.50992 -1.16556,-1.09499 -2.50765,-0.49441 -3.28476,-0.63576 -0.77711,-0.14135 -2.01175,-0.49547 -2.49006,-1.5894 -0.47851,-1.09393 -0.46135,-2.17091 0.32551,-3.41657 1.15793,-1.77547 2.25398,-1.88143 3.01223,-1.88143"
           id="path4999-8-0-5" />
      </g>
      <text
         inkscape:export-ydpi="114.00967"
         inkscape:export-xdpi="114.00967"
         inkscape:export-filename="/home/jon/flexscada/flexscada.png"
         sodipodi:linespacing="105%"
         id="text2985-2"
         y="-1998.069"
         x="4037.2112"
         style="font-style:normal;font-variant:normal;font-weight:normal;font-stretch:normal;font-size:169.4831543px;line-height:104.99999523%;font-family:Raleway;-inkscape-font-specification:Raleway;letter-spacing:0px;word-spacing:-0.01102539px;fill:#666666;fill-opacity:1;stroke:none;stroke-opacity:0.55686275;"
         xml:space="preserve"><tspan
           id="tspan2989-51"
           y="-1998.069"
           x="4037.2112"
           sodipodi:role="line"
           style="word-spacing:-0.02205095px;fill:#666666;fill-opacity:1;stroke:none;stroke-opacity:0.55686275;"><tspan
             id="tspan3011-8"
             style="font-style:normal;font-variant:normal;font-weight:300;font-stretch:normal;font-size:147.46533203px;line-height:104.99999523%;font-family:Raleway;-inkscape-font-specification:'Raleway Light';letter-spacing:-10.5079565px;word-spacing:-0.02205095px;fill:#666666;fill-opacity:1;stroke:none;stroke-opacity:0.55686275;"
             dx="-7.287776">SCADA</tspan></tspan></text>
      <text
         inkscape:export-ydpi="114.00967"
         inkscape:export-xdpi="114.00967"
         inkscape:export-filename="/home/jon/flexscada/flexscada.png"
         sodipodi:linespacing="105%"
         id="text2985-8-0"
         y="-1995.8418"
         x="3845.6484"
         style="font-style:normal;font-variant:normal;font-weight:normal;font-stretch:normal;font-size:169.4831543px;line-height:104.99999523%;font-family:Raleway;-inkscape-font-specification:Raleway;letter-spacing:0px;word-spacing:-0.01102539px;fill:#ff0000;fill-opacity:0.53731348;stroke:none"
         xml:space="preserve"><tspan
           id="tspan2989-5-1"
           y="-1995.8418"
           x="3845.6484"
           sodipodi:role="line"
           style="word-spacing:-0.02205095px;fill:#ff0000;fill-opacity:0.53731348"><tspan
             id="tspan2993-6"
             style="font-style:normal;font-variant:normal;font-weight:800;font-stretch:normal;font-size:101.68989563px;line-height:125%;font-family:Raleway;-inkscape-font-specification:'Raleway Ultra-Bold';text-align:start;letter-spacing:0px;word-spacing:-0.02205095px;writing-mode:lr-tb;text-anchor:start;fill:#ff0000;fill-opacity:0.53731348">flex</tspan><tspan
             id="tspan3011-0-0"
             style="font-style:normal;font-variant:normal;font-weight:300;font-stretch:normal;font-size:147.46533203px;line-height:104.99999523%;font-family:Raleway;-inkscape-font-specification:'Raleway Light';letter-spacing:-10.5079565px;word-spacing:-0.02205095px;fill:#ff0000;fill-opacity:0.53731348" /></tspan></text>
    </g>
  </g>
</svg>
